<svg xmlns="http://www.w3.org/2000/svg" width="27" height="27" viewBox="0 0 27 27"><g><g><path fill="#fff" d="M18.66 10.067l-2.578-3.43-2.577 3.43v-6.84h5.154zm5.123 12.431c0 .71-.575 1.285-1.285 1.285H4.512c-.71 0-1.285-.575-1.285-1.285V4.512c0-.71.576-1.285 1.285-1.285h6.424V13.52h3.077l2.062-2.758 2.062 2.759h3.077V3.227h1.284c.71 0 1.285.576 1.285 1.285zm-23.125 0a3.854 3.854 0 0 0 3.854 3.854h17.986a3.854 3.854 0 0 0 3.854-3.854V4.512A3.854 3.854 0 0 0 22.498.658H4.512A3.854 3.854 0 0 0 .658 4.512z"/></g></g></svg>